# xmcd CD database file
#
# Track frame offsets:
#	150
#	18640
#	28740
#	45792
#	65080
#	79272
#	94352
#	109175
#	121977
#	131830
#	146845
#	166585
#	178550
#	193312
#	207947
#	228370
#	247645
#	263642
#
# Disc length: 3659 seconds
#
# Revision: 0
# Processed by: cddbd v1.5.1PL0 Copyright (c) Steve Scherf et al.
# Submitted via: CDex 1.51
#
DISCID=f90e4912
DTITLE=Various Artist - Best Of British Jazz from the BBC Jazz Club Vol.5
DYEAR=1997
DGENRE=Jazz
TTITLE0=Hiawatha Rag
TTITLE1=South
TTITLE2=All the Girls go Crazy about the Way I Walk
TTITLE3=Saterday Night Function
TTITLE4=Theme from The Boyfriend
TTITLE5=Song of the Swanee
TTITLE6=Tears
TTITLE7=Keyhole Blues
TTITLE8=Down South Camp Meeting
TTITLE9=Stop, Look and Listen
TTITLE10=One o'Clock Jump
TTITLE11=That's A Plenty
TTITLE12=London Blues
TTITLE13=Give me Your Telephone Number
TTITLE14=Careless Love
TTITLE15=As Long as I live
TTITLE16=Too Busy
TTITLE17=Tell me is Fancy Bred
EXTD=YEAR: 1997
EXTT0=
EXTT1=
EXTT2=
EXTT3=
EXTT4=
EXTT5=
EXTT6=
EXTT7=
EXTT8=
EXTT9=
EXTT10=
EXTT11=
EXTT12=
EXTT13=
EXTT14=
EXTT15=
EXTT16=
EXTT17=
PLAYORDER=
